# xmcd CD database file
#
# Track frame offsets:
#	150
#	31597
#	74295
#	104835
#	123702
#	148315
#	181195
#	208595
#	233485
#	257090
#
# Disc length: 3650 seconds
#
# Revision: 0
# Processed by: cddbd v1.4PL0 Copyright (c) Steve Scherf et al.
# Submitted via: CDex 1.51
#
DISCID=910e400a
DTITLE=Lewis Nash - It Don't Mean A Thing
DYEAR=2003
DGENRE=Jazz
TTITLE0=It Don't Mean A Thing
TTITLE1=Caravan
TTITLE2=Sophistcated Lady
TTITLE3=Tico Tico
TTITLE4=Strollin
TTITLE5=Body And Soul
TTITLE6=Close Your Eyes
TTITLE7=How Insensitive
TTITLE8=We'll Be Together Again
TTITLE9=Skeeter Blues
EXTD=YEAR: 2003
EXTT0=
EXTT1=
EXTT2=
EXTT3=
EXTT4=
EXTT5=
EXTT6=
EXTT7=
EXTT8=
EXTT9=
PLAYORDER=
